<svg width="210" height="40" viewBox="0 0 210 40" fill="none" xmlns="http://www.w3.org/2000/svg">
<rect width="39.8621" height="39.8621" rx="10.6299" fill="#6938EF"/>
<g clip-path="url(#clip0_2596_22597)">
<path d="M29.2406 16.609H24.9139C24.5469 16.609 24.2495 16.3117 24.2495 15.9447V8.96881C24.2495 8.23468 23.6549 7.64008 22.9208 7.64008H10.63C9.89588 7.64008 9.30127 8.23468 9.30127 8.96881V21.2596C9.30127 21.9937 9.89588 22.5884 10.63 22.5884H16.111C16.4781 22.5884 16.7754 22.8857 16.7754 23.2527V31.3364C16.7754 32.4243 18.1357 32.9159 18.8316 32.0805L30.1342 18.5158C30.7653 17.7584 30.2272 16.609 29.2406 16.609Z" fill="white"/>
</g>
<g clip-path="url(#clip1_2596_22597)">
<path d="M73.911 28.269L76.8674 31.292H70.1241L69.5926 30.7605C67.6659 31.458 65.5067 31.7238 63.3143 31.7238C56.571 31.7238 49.7944 28.8338 49.7944 20.8945C49.7944 12.9551 56.6042 10.0983 63.3475 10.0983C70.0909 10.0983 76.9006 12.9884 76.9006 20.8945C76.9006 24.1499 75.738 26.5749 73.9442 28.269H73.911ZM65.6728 26.7078L61.7198 22.6551H68.43L69.2936 23.552C69.5926 22.7879 69.7255 21.9242 69.7255 20.9277C69.7255 17.1407 67.4334 14.8818 63.3475 14.8818C59.2617 14.8818 56.9696 17.1739 56.9696 20.9277C56.9696 24.6814 59.2949 27.0067 63.3475 27.0067C64.2112 27.0067 64.9752 26.8738 65.6728 26.7078Z" fill="#0E1A35"/>
<path d="M96.9308 15.4799V31.292H90.42V29.2989C89.7889 30.0962 87.9286 31.7239 84.9058 31.7239C80.5209 31.7239 77.9963 29.6975 77.9963 25.678V15.4799H84.4739V24.2164C84.4739 25.977 85.1715 27.3058 87.3971 27.3058C89.6228 27.3058 90.42 25.977 90.42 24.2164V15.4799H96.9308Z" fill="#0E1A35"/>
<path d="M98.5251 11.2277C98.5251 9.26775 99.9203 8.13831 101.88 8.13831C103.84 8.13831 105.235 9.26775 105.235 11.2277C105.235 13.1876 103.84 14.2838 101.88 14.2838C99.9203 14.2838 98.5251 13.1876 98.5251 11.2277ZM98.658 15.4797H105.136V31.2918H98.658V15.4797Z" fill="#0E1A35"/>
<path d="M120.682 24.8143H126.695C125.898 29.8635 121.214 31.7238 116.729 31.7238C111.846 31.7238 106.398 29.4981 106.398 23.3858C106.398 17.2736 111.846 15.0479 116.729 15.0479C121.214 15.0479 125.898 16.9082 126.695 21.9242H120.682C120.251 20.3961 119.021 19.2667 116.696 19.2667C113.706 19.2667 112.577 21.2598 112.577 23.3858C112.577 25.5118 113.706 27.505 116.696 27.505C119.021 27.505 120.251 26.3091 120.682 24.8143Z" fill="#0E1A35"/>
<path d="M136.062 25.8109L134.301 27.4718V31.292H127.791V10.497H134.301V20.363L139.251 15.4798H147.057L140.181 21.9243L147.389 31.292H140.081L136.029 25.8109H136.062Z" fill="#0E1A35"/>
<path d="M166.557 21.1602V31.2919H160.079V29.5978C159.116 30.6276 157.123 31.7238 154.399 31.7238C149.914 31.7238 147.39 30.1293 147.39 27.0067C147.39 23.4523 149.283 20.7616 160.079 21.3595V21.1602C160.079 19.6321 159.814 18.702 157.056 18.702C154.764 18.702 154.299 19.2999 154.1 20.2633H148.187C148.752 16.4099 151.941 15.0479 157.056 15.0479C162.172 15.0479 166.557 15.8452 166.557 21.1602ZM160.079 24.9471C156.126 24.781 153.701 24.9471 153.701 26.8406C153.701 28.0365 154.598 28.4351 156.06 28.4351C157.721 28.4351 159.249 27.7375 160.113 26.7409V24.9139L160.079 24.9471Z" fill="#0E1A35"/>
<path d="M188.182 10.497V31.292H181.704V29.3985C180.376 30.9598 178.482 31.7571 176.323 31.7571C171.44 31.7571 167.686 28.8006 167.686 23.4191C167.686 18.0377 171.44 15.0812 176.323 15.0812C178.449 15.0812 180.376 15.8785 181.704 17.4065V10.497H188.182ZM182.269 23.3859C182.269 21.0606 181.073 19.2668 178.017 19.2668C175.16 19.2668 173.865 21.2599 173.865 23.3859C173.865 25.5119 175.16 27.5051 178.017 27.5051C181.073 27.5051 182.269 25.678 182.269 23.3859Z" fill="#0E1A35"/>
<path d="M209.276 26.3091C209.276 30.3618 205.489 31.757 199.311 31.757C192.634 31.757 189.279 29.93 189.279 26.1762H196.055C196.055 27.7375 197.417 28.1361 199.61 28.1361C201.536 28.1361 202.566 27.8039 202.566 26.8738C202.566 25.6447 200.673 25.6115 196.819 25.0468C192.401 24.3824 189.943 23.6184 189.943 20.2965C189.943 16.9746 193.099 15.0479 199.045 15.0479C205.855 15.0479 208.446 17.2404 208.446 20.2633H202.001C202.001 19.2335 201.005 18.6355 198.979 18.6355C196.952 18.6355 196.055 19.001 196.055 19.7982C196.055 20.7948 197.716 20.8612 200.407 21.1934C205.224 21.7581 209.276 22.19 209.276 26.3091Z" fill="#0E1A35"/>
</g>
<defs>
<clipPath id="clip0_2596_22597">
<rect width="21.1053" height="24.8606" fill="white" transform="translate(9.30127 7.64008)"/>
</clipPath>
<clipPath id="clip1_2596_22597">
<rect width="159.448" height="23.5854" fill="white" transform="translate(49.8276 8.13831)"/>
</clipPath>
</defs>
</svg>
